<?xml version="1.0" encoding="UTF-8" standalone="no"?>
<!-- Created with Inkscape (http://www.inkscape.org/) -->

<svg
   width="99.379768mm"
   height="93.529175mm"
   viewBox="0 0 99.379768 93.529175"
   version="1.1"
   id="svg1"
   xml:space="preserve"
   xmlns:xlink="http://www.w3.org/1999/xlink"
   xmlns="http://www.w3.org/2000/svg"
   xmlns:svg="http://www.w3.org/2000/svg"><defs
     id="defs1"><linearGradient
       id="linearGradient10"><stop
         style="stop-color:#79b3fa;stop-opacity:1;"
         offset="0"
         id="stop10" /><stop
         style="stop-color:#e5e5e5;stop-opacity:0;"
         offset="1"
         id="stop11" /></linearGradient><linearGradient
       xlink:href="#linearGradient10"
       id="linearGradient11"
       x1="109.63071"
       y1="250.78366"
       x2="17.452131"
       y2="152.62323"
       gradientUnits="userSpaceOnUse" /></defs><g
     id="layer1"
     transform="translate(-10.411952,-158.11387)"><path
       id="path2"
       style="fill:url(#linearGradient11);fill-opacity:1;stroke-width:0.264583"
       d="m 84.071354,158.11386 c -0.585403,4.2306 -1.815534,9.65195 -3.140893,13.79916 h -8.201567 c -1.89156,0 -3.414262,1.5227 -3.414262,3.41426 v 0.0501 c 0,1.18988 0.602431,2.234 1.520321,2.84479 -3.736109,-1.5e-4 -7.506906,-6.5e-4 -11.41119,-0.002 l -5.17e-4,-5.2e-4 h -5.17e-4 c -0.03612,-0.005 -1.191963,0.0562 -1.216463,1.00253 -0.02947,1.13698 1.270724,1.02009 1.270724,1.02009 h 1.463476 l 5.893697,19.99206 4.962488,5.47202 c 7.223958,12.51228 -1.654162,45.93673 -1.654162,45.93673 h 7.444506 12.823507 7.444507 c 0,0 -8.878124,-33.42445 -1.654163,-45.93673 l 4.962484,-5.47202 5.8937,-19.99206 h 1.46348 c 0,0 1.30019,0.11689 1.27072,-1.02009 -0.0245,-0.94629 -1.18034,-1.00727 -1.21646,-1.00253 h -5.2e-4 l -5.2e-4,5.2e-4 c -3.9042,0.001 -7.67464,0.002 -11.410668,0.002 0.917763,-0.61081 1.52032,-1.65501 1.52032,-2.84479 v -0.0501 c 0,-1.89156 -1.523219,-3.41426 -3.414778,-3.41426 h -8.196916 c -1.228357,-4.14269 -2.328342,-9.55891 -3.000334,-13.79916 z M 64.213652,181.9212 v 5.1e-4 l 11.814265,0.005 c 0.524684,2.1e-4 0.949893,0.42565 0.949813,0.95033 v 15.93443 c 1.99e-4,0.44111 -0.35729,0.79883 -0.798401,0.79892 l -6.820255,0.003 c -0.354303,3.2e-4 -0.667137,-0.2311 -0.770496,-0.56999 l -4.974373,-16.3127 c -0.122758,-0.40263 0.178519,-0.80935 0.599447,-0.80925 z m 39.570198,5.1e-4 c 0.42092,-9e-5 0.7222,0.40663 0.59944,0.80926 l -4.974371,16.31269 c -0.103359,0.33889 -0.416192,0.57032 -0.770495,0.57 l -6.820256,-0.003 c -0.441111,-9e-5 -0.7986,-0.35781 -0.798401,-0.79892 v -15.93443 c -8e-5,-0.52468 0.425129,-0.95012 0.949813,-0.95033 z m -24.422803,5.2e-4 h 9.271269 c 0.413014,-9e-5 0.747851,0.33475 0.747758,0.74776 v 16.19229 c 9.3e-5,0.41281 -0.334429,0.74757 -0.747241,0.74776 h -5.17e-4 -9.267651 c -0.412812,-1.9e-4 -0.747334,-0.33495 -0.747241,-0.74776 v -16.19229 c -9.9e-5,-0.4114 0.332224,-0.74558 0.743623,-0.74776 z m -9.861413,37.27473 c 0,0 -23.066702,0.45649 -40.806812,5.49837 -32.4238761,9.21514 -11.838554,26.94771 -11.838554,26.94771 H 20.8995 v -5.20175 c 0,-0.56151 0.562835,-1.01338 1.262455,-1.01338 h 1.777669 c 0.69962,0 1.262455,0.45187 1.262455,1.01338 v 5.20175 h 36.095988 l 3.454053,-13.66428 v 13.66428 h 3.316593 v -26.78545 z m -11.835453,4.19767 h 2.114082 c 0.69704,0 1.258321,0.56078 1.258321,1.25781 v 19.03449 c 0,0.69703 -0.561281,1.25781 -1.258321,1.25781 h -2.114082 c -0.69704,0 -1.257805,-0.56078 -1.257805,-1.25781 v -19.03449 c 0,-0.69703 0.560765,-1.25781 1.257805,-1.25781 z m -6.862631,0.28732 h 2.147156 c 0.68774,0 1.241268,0.55353 1.241268,1.24127 v 18.78025 c 0,0.68774 -0.553528,1.24127 -1.241268,1.24127 H 50.80155 c -0.68773,0 -1.241268,-0.55353 -1.241268,-1.24127 v -18.78025 c 0,-0.68774 0.553538,-1.24127 1.241268,-1.24127 z m -6.892602,0.79117 h 2.240173 c 0.66215,0 1.195276,0.53313 1.195276,1.19528 v 18.08106 c 0,0.66214 -0.533126,1.19528 -1.195276,1.19528 h -2.240173 c -0.66215,0 -1.194759,-0.53314 -1.194759,-1.19528 V 225.6684 c 0,-0.66215 0.532609,-1.19528 1.194759,-1.19528 z m -6.904488,1.00666 h 2.356962 c 0.62958,0 1.136364,0.50677 1.136364,1.13636 v 17.19223 c 0,0.62958 -0.506784,1.13637 -1.136364,1.13637 H 37.00446 c -0.62958,0 -1.136365,-0.50679 -1.136365,-1.13637 v -17.19223 c 0,-0.62959 0.506785,-1.13636 1.136365,-1.13636 z m -6.923092,1.31154 h 2.510958 c 0.58717,0 1.059367,0.47273 1.059367,1.05989 v 16.03365 c 0,0.58716 -0.472197,1.05988 -1.059367,1.05988 h -2.510958 c -0.58717,0 -1.059884,-0.47272 -1.059884,-1.05988 v -16.03365 c 0,-0.58716 0.472714,-1.05989 1.059884,-1.05989 z" /></g></svg>
