<?xml version="1.0" encoding="UTF-8" standalone="no"?>
<!-- Created with Inkscape (http://www.inkscape.org/) -->

<svg
   width="153.70392mm"
   height="66.321884mm"
   viewBox="0 0 153.70392 66.321884"
   version="1.1"
   id="svg1"
   xml:space="preserve"
   xmlns:xlink="http://www.w3.org/1999/xlink"
   xmlns="http://www.w3.org/2000/svg"
   xmlns:svg="http://www.w3.org/2000/svg"><defs
     id="defs1"><linearGradient
       id="linearGradient1"><stop
         style="stop-color:#79b3fa;stop-opacity:1;"
         offset="0"
         id="stop1" /><stop
         style="stop-color:#e5e5e5;stop-opacity:0;"
         offset="1"
         id="stop2" /></linearGradient><linearGradient
       xlink:href="#linearGradient1"
       id="linearGradient2"
       x1="398.72064"
       y1="477.94189"
       x2="303.92459"
       y2="116.75414"
       gradientUnits="userSpaceOnUse"
       gradientTransform="matrix(0.26458333,0,0,0.26458333,-16.542416,-43.64653)" /></defs><g
     id="layer1"
     transform="translate(-8.0218186,-7.2739593)"><path
       style="fill:url(#linearGradient2);stroke-width:0.179958"
       d="m 125.07147,72.709062 c -0.0147,-1.010764 -0.50601,-1.876105 -1.4214,-2.503337 -0.31181,-0.213661 -0.72402,-0.532074 -0.91601,-0.707588 -0.98261,-0.898258 -3.04408,-2.560619 -3.1754,-2.560619 -0.0826,0 -0.47084,0.202451 -0.86282,0.449892 -0.76478,0.482785 -1.25345,0.564121 -1.55822,0.259353 -0.13409,-0.134086 -0.54618,-0.07565 -1.39083,0.197231 -1.42913,0.461703 -1.78966,0.390895 -1.61744,-0.317662 0.0667,-0.27436 0.23064,-0.658572 0.36434,-0.853805 0.2605,-0.380405 0.33237,-1.174673 0.10627,-1.174673 -0.0752,0 -0.33843,-0.184798 -0.58486,-0.410665 -1.08841,-0.997588 -3.47418,-2.828573 -3.68563,-2.828573 -0.12776,0 -0.58531,0.160184 -1.01677,0.355962 -0.71754,0.325594 -1.59428,0.480867 -1.59428,0.282355 0,-0.468751 0.69638,-1.073568 0.88367,-1.484624 0.2142,-0.470104 0.17448,-0.530127 -1.18582,-1.792065 -0.7741,-0.718119 -1.54638,-1.354119 -1.7162,-1.41333 -0.28585,-0.09967 -1.05148,0.05394 -1.80575,0.362304 -0.22269,0.09104 -0.31493,0.04405 -0.31493,-0.160441 0,-0.413538 0.35992,-0.17445 0.35992,-0.546999 0,-0.469879 -0.66545,-0.484137 -1.64718,-0.0353 -1.79235,0.819441 -2.460003,1.053865 -2.656176,0.932625 -0.256836,-0.158735 -0.247319,-0.378048 0.02936,-0.676508 0.612946,-0.661215 1.058496,-1.450906 0.905136,-1.604272 -0.0915,-0.09153 -1.213294,-0.526479 -2.492816,-0.96656 -1.27952,-0.440079 -2.770653,-0.964631 -3.313628,-1.165675 -1.231403,-0.455938 -1.496481,-0.455054 -3.10909,0.01037 -3.484269,1.005596 -5.519306,1.264015 -9.490496,1.205145 -3.136937,-0.04651 -3.156299,-0.04436 -4.948838,0.547502 -0.989766,0.326803 -1.961538,0.664658 -2.159492,0.750787 -0.400029,0.174051 -3.484729,1.169075 -4.813871,1.552798 -0.470138,0.135728 -1.279948,0.372112 -1.799577,0.525301 -6.024263,1.775949 -10.124778,2.601483 -15.611337,3.142948 -3.611401,0.356404 -4.927484,0.534244 -5.079635,0.686393 -0.08416,0.08417 0.414925,1.117626 1.109088,2.296578 l 1.262116,2.143553 -0.400373,0.310923 c -0.220205,0.17101 -0.474998,0.312727 -0.566211,0.314928 -0.09121,0.0021 -0.677548,0.208717 -1.302972,0.458928 -1.380384,0.552238 -0.891683,0.74514 -6.44933,-2.545676 -2.177489,-1.289343 -4.202015,-2.434928 -4.498943,-2.545749 -0.332595,-0.124127 -2.543583,-0.231148 -5.758648,-0.278736 -4.359447,-0.06453 -5.360078,-0.128484 -6.076905,-0.388403 -1.648662,-0.597799 -1.526927,-1.565865 0.443174,-3.524276 0.69796,-0.693822 1.221343,-1.358988 1.171504,-1.488861 -0.04955,-0.129117 -1.535735,-0.964811 -3.302641,-1.8571 C 21.614619,54.771153 18.225423,53.040818 15.849981,51.81825 13.474539,50.595685 10.74143,49.201153 9.7764065,48.719291 8.811383,48.23743 8.0218185,47.77584 8.0218185,47.693536 c 0,-0.0823 0.4656407,-0.341037 1.034757,-0.574958 0.8298268,-0.341085 1.3555165,-0.424299 2.6543775,-0.420185 1.615414,0.0051 2.529097,0.282276 5.601187,1.503868 1.271172,0.505468 8.386712,2.70873 10.01015,3.27841 2.885035,1.012391 3.923012,1.060235 4.301178,1.060235 0.342794,0 0.369512,-0.07405 0.275963,-0.76482 -0.05697,-0.42065 -0.22329,-1.696103 -0.369604,-2.834336 -0.146318,-1.138232 -0.35555,-2.71736 -0.464971,-3.509176 -0.484524,-3.50629 -0.715243,-5.299242 -0.822076,-6.3885 -0.0631,-0.64335 -0.181732,-1.45316 -0.263629,-1.799577 -0.0819,-0.346418 -0.202054,-1.219104 -0.267017,-1.9393 l -0.118115,-1.309447 1.046125,-0.459486 c 2.436797,-1.070313 4.541517,-1.87189 4.892365,-1.863241 0.161031,0.004 0.616707,0.423596 1.012616,0.932503 0.395907,0.50891 1.248093,1.538171 1.893748,2.287246 0.645654,0.749075 1.634042,1.928823 2.196417,2.621661 0.562374,0.692838 1.208336,1.475984 1.43547,1.740324 0.227135,0.264342 1.263272,1.519547 2.302526,2.789346 1.039257,1.269799 2.302383,2.733876 2.806952,3.253504 0.86138,0.887092 0.971256,0.944708 1.799576,0.943668 1.454333,-0.10432 2.776048,-0.821706 4.121425,-1.336497 1.594128,-0.591545 5.927294,-2.266699 6.29852,-2.434937 0.197954,-0.08971 1.129237,-0.454792 2.069516,-0.811295 0.940278,-0.356499 1.871562,-0.715351 2.069515,-0.797448 0.197953,-0.08209 0.845801,-0.329142 1.439661,-0.548995 0.59386,-0.21985 1.241708,-0.469286 1.439662,-0.554299 0.197953,-0.08502 0.805312,-0.326292 1.349684,-0.536171 1.582021,-0.60993 1.88622,-0.796454 1.943574,-1.191717 0.06713,-0.462677 -0.580306,-0.916628 -1.421911,-0.996966 -0.527335,-0.05034 -0.612777,-0.125251 -0.619866,-0.543467 -0.0045,-0.266793 -0.163621,-0.656789 -0.353546,-0.866654 -0.598432,-0.66126 -2.597521,-1.867244 -5.604471,-3.380988 l -2.906956,-1.463406 -1.439103,0.623645 c -1.472051,0.637918 -2.194766,0.7778 -2.194766,0.424791 0,-0.109366 0.246954,-0.564764 0.548788,-1.011994 0.301834,-0.447234 0.524531,-0.937655 0.494882,-1.089827 -0.05926,-0.304157 -12.793675,-6.862307 -13.343011,-6.871573 -0.182682,-0.0031 -0.547095,0.105582 -0.80981,0.241474 -2.240368,1.15886 -3.261929,1.096338 -2.445512,-0.149672 0.163681,-0.249809 0.257886,-0.704458 0.224948,-1.085633 C 39.785726,21.219577 39.734635,21.1779 37.714848,20.125094 35.240309,18.83525 35.155306,18.76281 35.690325,18.399801 36.409354,17.911941 36.210457,17.404378 35.060472,16.792468 34.491356,16.489642 33.560075,15.987132 32.990959,15.675783 32.421843,15.364432 31.49056,14.857742 30.921444,14.549804 30.352328,14.241866 29.036385,13.523419 27.997131,12.953253 26.957874,12.383089 25.459727,11.566116 24.667911,11.137759 23.876098,10.709401 22.742363,10.093501 22.148503,9.7690929 20.911664,9.093445 20.567576,9.0455158 20.116191,9.48601 19.133426,10.445066 19.111883,10.438558 19.24907,9.2241016 19.361409,8.2295857 19.33331,8.0654912 18.992273,7.7244538 18.781657,7.5138376 18.636326,7.3161726 18.66932,7.2851979 c 0.03299,-0.030975 2.205982,0.00431 4.828865,0.078401 4.760579,0.1344824 5.068851,0.2738623 6.748418,0.8939001 1.283774,0.4739243 6.335059,2.235261 7.828163,2.808814 0.346417,0.133072 1.358681,0.49702 2.249472,0.808776 0.890791,0.311753 2.631882,0.928838 3.869092,1.371293 1.23721,0.442457 3.059282,1.092578 4.049048,1.44471 2.283905,0.910693 4.623903,1.632005 6.928374,2.488819 0.346419,0.129563 1.480153,0.534651 2.51941,0.900191 1.039254,0.365544 2.051518,0.729459 2.249472,0.808702 0.197953,0.07925 1.169725,0.430882 2.159492,0.781418 0.989769,0.350536 2.811841,0.999485 4.049051,1.442106 1.23721,0.442624 3.099771,1.102569 4.139028,1.466548 1.039256,0.363977 2.051518,0.727454 2.249471,0.807726 0.197954,0.08027 0.886294,0.325038 1.529641,0.54393 0.64335,0.21889 1.412669,0.50051 1.7096,0.625819 0.296931,0.125309 1.025758,0.395904 1.61962,0.601321 0.59386,0.20542 1.889557,0.664596 2.879323,1.020392 2.895304,1.040792 3.83985,1.348714 4.137157,1.348714 0.153681,0 1.256837,-0.330274 2.45146,-0.733939 5.770391,-1.94983 9.119132,-2.451451 10.763888,-1.61236 0.405961,0.207106 1.040696,0.698143 1.410523,1.091195 0.369826,0.393052 0.772924,0.714772 0.895776,0.714936 0.122846,1.61e-4 0.770696,-0.234326 1.439656,-0.521084 0.66897,-0.286758 1.94513,-0.819094 2.83592,-1.182976 0.89079,-0.363879 1.90306,-0.782584 2.24947,-0.930455 0.94963,-0.405352 1.26053,-0.532323 2.33946,-0.955415 0.54437,-0.213472 1.15173,-0.463172 1.34968,-0.554887 0.19795,-0.09172 1.49365,-0.616122 2.87932,-1.165344 1.38568,-0.549222 2.68138,-1.070115 2.87933,-1.157542 1.81464,-0.776753 3.63192,-1.472813 5.48871,-2.153949 0.64335,-0.229306 1.41267,-0.519761 1.7096,-0.645453 0.61178,-0.258975 3.02293,-1.125144 4.76888,-1.713154 0.64335,-0.21667 1.33169,-0.457999 1.52964,-0.536286 3.63778,-1.306013 7.36417,-2.336681 11.15738,-3.077927 4.84104,-0.894398 8.57647,-0.537123 12.05717,1.153213 0.89017,0.432292 1.71392,0.718301 4.85406,1.68535 1.81555,0.559123 3.35055,1.494568 3.87936,2.364127 1.27418,2.095219 -0.77109,5.411411 -5.10941,8.284368 -0.77053,0.510262 -1.43194,0.927751 -1.4698,0.927751 -0.0379,0 -0.49757,0.256011 -1.02155,0.568915 -1.61946,0.967079 -6.26031,3.224202 -8.69088,4.226896 -0.59387,0.244988 -1.36318,0.567325 -1.7096,0.716304 -0.90977,0.391252 -1.2335,0.52374 -2.33945,0.957432 -0.54438,0.213471 -1.15173,0.461793 -1.34969,0.551825 -0.34309,0.156044 -1.66072,0.66539 -5.35374,2.069566 -1.23396,0.365538 -1.51262,0.730853 -8.59298,3.232158 -1.03926,0.367135 -2.17299,0.776726 -2.51941,0.910201 -0.34642,0.133474 -0.80388,0.290724 -1.01657,0.349443 -0.2127,0.05872 -0.57712,0.291076 -0.80981,0.516353 -2.02624,1.961594 -3.54742,2.814793 -3.66525,3.186046 -0.0808,0.254632 0.10443,0.743011 0.59726,1.574631 0.39293,0.663038 0.97376,1.691407 1.29073,2.285267 0.90442,1.694484 0.84703,1.668348 2.47232,1.126032 3.22136,-1.07488 6.4712,-1.756354 8.36515,-1.754127 1.79301,0.0021 2.96278,0.461119 3.90238,1.531268 0.70102,0.798415 0.97227,1.393437 1.28878,2.827052 0.1974,0.894149 0.18621,1.183706 -0.0844,2.183384 -0.57305,2.117003 -2.38313,3.41353 -7.34677,5.262348 -1.58445,0.590164 -2.21916,0.868656 -2.44942,1.07474 -0.27004,0.241689 0.0391,0.879917 2.21588,4.575353 0.61219,1.039257 1.1693,2.011029 1.23804,2.159494 0.0687,0.148463 0.36418,0.674841 0.65655,1.169726 0.29237,0.494882 0.53424,0.989187 0.5375,1.098452 0.003,0.109265 -0.80272,0.743926 -1.79108,1.410359 -0.98835,0.666432 -2.1547,1.60954 -2.59189,2.095796 -0.43718,0.486257 -0.823,0.884047 -0.85737,0.883978 -0.0344,-6.8e-5 -0.0683,-0.399113 -0.0754,-0.886767 z"
       id="path1" /></g></svg>
